mtllib SM_SFPPlannerTerminalScreen_r3.mtl
s off
o ScreenOverlay
usemtl SFP_R3_ScreenUI
v 13.82027 -41.00000 99.74085
v 14.16686 -41.00000 99.78956
v 14.16686 41.00000 99.78956
v 13.82027 41.00000 99.74085
v 7.83582 -41.00000 142.32237
v 8.18242 -41.00000 142.37108
v 8.18242 41.00000 142.37108
v 7.83582 41.00000 142.32237
vt 0.000000 0.000000
vt 1.000000 0.000000
vt 1.000000 1.000000
vt 0.000000 1.000000
vt 0.000000 0.000000
vt 1.000000 0.000000
vt 1.000000 1.000000
vt 0.000000 1.000000
vt 0.000000 0.000000
vt 1.000000 0.000000
vt 1.000000 1.000000
vt 0.000000 1.000000
vt 0.000000 0.000000
vt 1.000000 0.000000
vt 1.000000 1.000000
vt 0.000000 1.000000
vt 0.000000 0.000000
vt 1.000000 0.000000
vt 1.000000 1.000000
vt 0.000000 1.000000
vt 0.000000 0.000000
vt 1.000000 0.000000
vt 1.000000 1.000000
vt 0.000000 1.000000
f 1/1 4/2 3/3 2/4
f 5/5 6/6 7/7 8/8
f 1/9 2/10 6/11 5/12
f 2/13 3/14 7/15 6/16
f 3/17 4/18 8/19 7/20
f 4/21 1/22 5/23 8/24
